<svg xmlns="http://www.w3.org/2000/svg" xmlns:v="https://svgstorm.com"
viewBox = "0 0 257 196"
width="257"
height="196">
<g fill="None" fill-opacity="0.0" stroke="#0B0F17" stroke-opacity="1.00" stroke-width="0.3"><path d="
M 0.00 196.00 
L 257.00 196.00
L 257.00 0.00
L 178.00 0.00
C 179.23 10.17 190.40 12.96 188.00 24.00
C 194.33 27.43 191.03 40.43 192.00 48.00
C 197.01 46.42 196.02 51.86 196.00 55.00
C 198.01 56.24 201.21 56.15 200.00 60.00
C 197.52 60.03 195.72 61.69 195.00 64.00
C 199.28 67.01 196.31 76.02 199.00 81.00
C 188.56 85.53 193.03 98.00 190.00 106.00
C 186.93 103.58 187.06 106.86 188.00 109.00
C 185.76 108.01 183.54 106.98 181.00 107.00
C 183.63 97.62 177.60 115.77 176.00 106.00
C 178.33 112.17 173.97 111.40 172.00 114.00
C 171.03 114.97 171.68 118.84 168.00 117.00
C 169.75 119.43 173.69 121.19 172.00 126.00
C 170.51 129.29 167.20 127.79 164.00 127.00
C 164.36 125.20 163.80 123.58 162.00 125.00
C 162.81 125.07 160.18 128.64 159.00 127.00
C 162.24 115.44 151.26 115.67 154.00 127.00
C 149.57 128.10 151.36 122.51 151.00 120.00
C 150.37 119.00 148.58 119.57 148.00 119.00
C 148.44 121.59 147.67 124.39 148.00 127.00
C 144.90 125.37 138.52 129.49 138.00 124.00
C 137.71 124.52 136.37 124.66 136.00 125.00
C 133.70 127.09 131.48 127.49 128.00 127.00
C 127.25 123.16 133.72 126.94 133.00 123.00
C 131.45 121.45 128.83 121.17 128.00 119.00
C 127.80 118.84 126.03 118.08 126.00 118.00
C 125.93 118.49 125.97 119.50 126.00 120.00
C 126.11 121.78 126.78 126.14 125.00 127.00
C 124.19 127.39 122.85 126.69 122.00 127.00
C 122.00 124.00 122.00 121.00 122.00 118.00
C 121.99 118.01 118.08 118.65 118.00 121.00
C 118.25 123.16 118.37 123.68 120.00 125.00
C 118.13 129.31 113.53 126.49 114.00 122.00
C 110.94 130.41 107.67 112.17 114.00 120.00
C 113.62 117.50 112.81 116.46 112.00 114.00
C 111.68 114.24 111.00 114.00 111.00 114.00
C 110.61 116.74 109.96 116.41 108.25 118.25 C 106.55 120.10 109.22 124.07 108.00 126.00
C 107.13 127.38 105.52 126.89 104.00 127.00
C 104.00 122.67 104.00 118.33 104.00 114.00
C 102.30 113.78 100.90 114.93 100.00 115.00
C 98.98 116.55 102.84 124.56 101.00 127.00
C 98.22 124.86 93.73 129.20 92.00 125.00
C 91.38 124.12 90.65 123.46 91.00 122.00
C 90.41 122.62 89.54 123.34 89.00 124.00
C 88.30 124.86 87.77 125.31 87.00 126.00
C 85.18 127.65 83.69 131.14 82.00 128.00
C 83.30 132.48 79.21 133.85 76.00 132.00
C 77.41 130.04 77.85 125.92 75.00 125.00
C 72.67 129.51 64.12 123.90 66.00 132.00
C 61.73 130.16 65.06 122.24 64.00 118.00
C 63.23 119.46 61.47 121.50 61.00 123.00
C 60.53 124.51 62.51 125.42 62.00 127.00
C 56.45 128.58 58.76 119.22 52.00 122.00
C 53.85 125.01 48.44 129.64 48.00 125.00
C 47.21 123.92 48.60 121.23 48.00 120.00
C 37.81 125.77 35.10 114.73 26.97 112.03 C 18.85 109.33 19.98 98.47 14.00 98.00
C 17.68 95.00 14.03 89.15 10.00 88.00
C 10.00 85.00 10.00 82.00 10.00 79.00
C 0.46 76.67 9.00 67.19 8.00 60.00 C 6.99 52.80 11.65 45.40 12.90 38.90 C 14.15 32.41 15.47 25.39 19.75 19.75 C 24.04 14.12 21.53 5.59 26.00 0.00
L 0.00 0.00
L 0.00 196.00
M 208.00 114.00 
C 213.62 112.21 217.80 117.48 216.00 123.00 C 214.20 128.52 207.92 126.14 204.00 127.00
C 202.63 121.48 204.95 99.25 208.00 114.00
M 183.00 109.00 
C 182.00 113.60 184.33 115.09 183.00 120.00 C 181.67 124.91 186.43 124.31 188.00 127.00
C 176.89 131.64 177.77 112.04 183.00 109.00
M 201.00 127.00 
C 198.21 125.38 192.27 129.53 191.08 123.92 C 189.90 118.31 198.74 120.52 198.00 116.00
C 195.77 116.71 191.07 118.43 192.00 114.00
C 200.75 111.60 202.12 120.44 201.00 127.00 Z"/>
</g>
<g fill="None" fill-opacity="0.0" stroke="#1A2230" stroke-opacity="1.00" stroke-width="0.3"><path d="
M 48.00 125.00 
C 47.74 124.05 49.80 118.74 50.00 117.00
C 50.61 111.68 50.15 111.81 49.00 107.00
C 47.26 111.01 44.09 106.26 41.00 107.00
C 40.68 102.12 36.68 100.07 32.00 100.00
C 31.52 92.77 22.84 88.37 25.00 80.00
C 18.80 77.09 22.21 68.90 21.98 61.98 C 21.74 55.05 23.29 46.71 24.00 40.00
C 28.76 39.50 26.58 30.59 30.30 27.30 C 34.03 24.02 30.94 16.58 34.75 12.75 C 38.57 8.93 34.86 3.97 39.00 0.00
L 26.00 0.00
C 21.53 5.59 24.04 14.12 19.75 19.75 C 15.47 25.39 14.15 32.41 12.90 38.90 C 11.65 45.40 6.99 52.80 8.00 60.00 C 9.00 67.19 0.46 76.67 10.00 79.00
C 10.00 82.00 10.00 85.00 10.00 88.00
C 14.03 89.15 17.68 95.00 14.00 98.00
C 19.98 98.47 18.85 109.33 26.97 112.03 C 35.10 114.73 37.81 125.77 48.00 120.00
C 48.60 121.23 47.21 123.92 48.00 125.00 Z"/>
</g>
<g fill="None" fill-opacity="0.0" stroke="#242F42" stroke-opacity="1.00" stroke-width="0.3"><path d="
M 50.00 117.00 
C 50.45 115.45 55.00 105.34 57.22 109.78 C 59.44 114.22 60.25 118.39 61.00 123.00
C 61.47 121.50 63.23 119.46 64.00 118.00
C 64.55 116.96 63.58 115.11 64.00 114.00
C 67.88 115.24 71.46 113.09 75.00 116.00
C 75.09 115.56 75.77 114.36 76.00 114.00
C 76.04 114.16 72.71 113.47 74.00 112.00
C 75.00 112.00 76.00 112.00 77.00 112.00
C 78.41 111.31 83.16 113.69 84.00 114.00
C 88.69 115.73 91.87 118.28 89.00 124.00
C 89.54 123.34 90.41 122.62 91.00 122.00
C 92.17 120.79 92.60 120.83 94.00 120.00
C 95.21 119.28 97.06 119.20 98.00 118.00
C 97.06 114.80 94.09 116.69 92.00 117.00
C 91.85 112.90 97.66 113.51 100.00 115.00
C 100.90 114.93 102.30 113.78 104.00 114.00
C 104.49 114.06 105.00 114.00 105.00 114.00
C 105.50 114.00 106.00 114.00 106.00 114.00
C 109.86 112.08 105.55 107.14 108.00 104.00
C 108.24 103.69 108.00 103.00 108.00 103.00
C 108.90 100.51 110.73 98.30 112.00 96.00
C 109.76 97.80 101.94 97.80 104.00 104.00
C 101.54 103.47 98.87 104.58 98.00 107.00
C 94.84 102.44 86.40 106.47 80.33 104.67 C 74.26 102.87 69.27 98.10 62.00 100.00
C 59.78 94.09 53.84 88.56 48.00 88.00
C 48.00 85.00 48.00 82.00 48.00 79.00
C 37.11 76.14 41.36 65.66 40.00 59.00 C 38.64 52.34 41.02 49.33 40.00 43.00
C 46.84 40.40 45.36 31.96 48.00 27.00
C 53.41 29.78 50.76 17.57 52.78 12.78 C 54.80 7.99 58.78 3.38 63.00 0.00
L 39.00 0.00
C 34.86 3.97 38.57 8.93 34.75 12.75 C 30.94 16.58 34.03 24.02 30.30 27.30 C 26.58 30.59 28.76 39.50 24.00 40.00
C 23.29 46.71 21.74 55.05 21.98 61.98 C 22.21 68.90 18.80 77.09 25.00 80.00
C 22.84 88.37 31.52 92.77 32.00 100.00
C 36.68 100.07 40.68 102.12 41.00 107.00
C 44.09 106.26 47.26 111.01 49.00 107.00
C 50.15 111.81 50.61 111.68 50.00 117.00 Z"/>
</g>
<g fill="None" fill-opacity="0.0" stroke="#32425A" stroke-opacity="1.00" stroke-width="0.3"><path d="
M 112.00 96.00 
C 118.15 84.85 124.54 73.96 131.00 63.00
C 134.01 65.07 136.20 68.51 137.00 72.00
C 138.22 73.50 139.61 73.79 141.00 75.00
C 142.24 72.96 144.18 71.27 147.00 72.00
C 145.40 67.39 151.35 59.50 144.00 59.00
C 144.60 55.97 150.29 53.97 148.00 49.00 C 145.71 44.03 146.72 29.99 143.00 40.00
C 143.27 33.95 140.78 24.98 135.00 24.00
C 136.98 16.70 130.04 15.36 132.00 8.00
C 126.50 9.63 128.22 3.25 128.00 0.00
L 63.00 0.00
C 58.78 3.38 54.80 7.99 52.78 12.78 C 50.76 17.57 53.41 29.78 48.00 27.00
C 45.36 31.96 46.84 40.40 40.00 43.00
C 41.02 49.33 38.64 52.34 40.00 59.00 C 41.36 65.66 37.11 76.14 48.00 79.00
C 48.00 82.00 48.00 85.00 48.00 88.00
C 53.84 88.56 59.78 94.09 62.00 100.00
C 69.27 98.10 74.26 102.87 80.33 104.67 C 86.40 106.47 94.84 102.44 98.00 107.00
C 98.87 104.58 101.54 103.47 104.00 104.00
C 101.94 97.80 109.76 97.80 112.00 96.00 Z"/>
</g>
<g fill="None" fill-opacity="0.0" stroke="#27364A" stroke-opacity="1.00" stroke-width="0.3"><path d="
M 137.00 72.00 
C 136.91 73.09 135.56 75.03 135.00 76.00
C 134.94 76.74 136.18 79.41 136.00 81.00
C 137.03 79.27 139.19 76.54 141.00 76.00
C 141.36 80.87 147.74 85.13 143.00 90.00
C 143.08 89.95 146.18 90.01 146.00 90.00
C 148.90 90.18 150.42 91.94 152.00 95.00
C 151.02 92.06 150.50 90.19 150.00 87.00
C 154.76 87.45 155.48 79.27 158.31 74.31 C 161.13 69.34 160.13 59.94 160.98 53.98 C 161.82 48.01 158.01 39.39 159.00 33.00
C 149.91 32.19 154.08 22.75 149.70 18.30 C 145.32 13.85 144.20 6.64 144.00 0.00
L 128.00 0.00
C 128.22 3.25 126.50 9.63 132.00 8.00
C 130.04 15.36 136.98 16.70 135.00 24.00
C 140.78 24.98 143.27 33.95 143.00 40.00
C 146.72 29.99 145.71 44.03 148.00 49.00 C 150.29 53.97 144.60 55.97 144.00 59.00
C 151.35 59.50 145.40 67.39 147.00 72.00
C 144.18 71.27 142.24 72.96 141.00 75.00
C 139.61 73.79 138.22 73.50 137.00 72.00 Z"/>
</g>
<g fill="None" fill-opacity="0.0" stroke="#202939" stroke-opacity="1.00" stroke-width="0.3"><path d="
M 152.00 95.00 
C 152.49 96.48 153.76 98.48 154.00 100.00
C 154.87 99.12 158.25 99.04 159.00 97.00
C 159.87 99.75 161.06 103.37 158.00 105.00
C 160.61 106.21 163.51 102.59 167.00 104.00
C 172.35 96.18 173.75 85.91 179.00 80.00
C 174.72 72.55 179.51 68.68 180.09 62.90 C 180.68 57.13 181.25 46.80 178.23 40.77 C 175.21 34.75 172.16 29.39 173.00 22.00
C 166.38 17.32 163.83 8.42 164.00 0.00
L 144.00 0.00
C 144.20 6.64 145.32 13.85 149.70 18.30 C 154.08 22.75 149.91 32.19 159.00 33.00
C 158.01 39.39 161.82 48.01 160.98 53.98 C 160.13 59.94 161.13 69.34 158.31 74.31 C 155.48 79.27 154.76 87.45 150.00 87.00
C 150.50 90.19 151.02 92.06 152.00 95.00 Z"/>
</g>
<g fill="None" fill-opacity="0.0" stroke="#131C27" stroke-opacity="1.00" stroke-width="0.3"><path d="
M 154.00 100.00 
C 153.81 100.19 155.78 102.44 155.00 103.00
C 144.26 106.35 140.14 98.05 146.00 90.00
C 146.18 90.01 143.08 89.95 143.00 90.00
C 141.03 93.72 137.82 101.07 134.00 103.00
C 131.56 104.23 126.33 104.95 124.00 103.00
C 128.54 95.98 131.82 88.03 136.00 81.00
C 136.18 79.41 134.94 76.74 135.00 76.00
C 130.85 83.22 124.61 99.91 117.00 103.00
C 114.47 104.03 111.18 104.29 108.00 104.00
C 105.55 107.14 109.86 112.08 106.00 114.00
C 107.67 114.00 109.33 114.00 111.00 114.00
C 111.00 114.00 111.68 114.24 112.00 114.00
C 113.59 112.82 114.33 110.84 117.00 111.00
C 115.57 114.00 123.52 115.46 118.00 117.00
C 117.72 118.00 117.88 119.96 118.00 121.00
C 118.08 118.65 121.99 118.01 122.00 118.00
C 122.66 117.26 121.49 114.88 122.00 114.00
C 125.04 113.10 126.73 115.02 126.00 118.00
C 126.03 118.08 127.80 118.84 128.00 119.00
C 129.25 117.99 127.98 114.65 131.00 114.00
C 131.70 113.85 133.31 113.84 134.00 114.00
C 137.69 114.84 134.59 117.53 132.00 117.00
C 132.06 120.49 137.79 120.54 136.00 125.00
C 136.37 124.66 137.71 124.52 138.00 124.00
C 139.29 121.70 139.29 117.30 144.00 119.00
C 144.45 115.20 137.36 118.90 139.00 114.00
C 142.69 113.53 148.78 113.73 148.00 119.00
C 148.58 119.57 150.37 119.00 151.00 120.00
C 151.08 118.00 150.94 116.00 151.00 114.00
C 158.28 112.61 164.61 116.05 162.00 125.00
C 163.80 123.58 164.36 125.20 164.00 127.00
C 167.20 127.79 170.51 129.29 172.00 126.00
C 170.66 127.98 166.55 126.96 165.00 126.00
C 170.22 123.36 167.55 124.13 164.70 120.30 C 161.86 116.46 167.96 112.05 172.00 114.00
C 173.97 111.40 178.33 112.17 176.00 106.00
C 177.60 115.77 183.63 97.62 181.00 107.00
C 183.54 106.98 185.76 108.01 188.00 109.00
C 187.06 106.86 186.93 103.58 190.00 106.00
C 193.03 98.00 188.56 85.53 199.00 81.00
C 196.31 76.02 199.28 67.01 195.00 64.00
C 195.72 61.69 197.52 60.03 200.00 60.00
C 201.21 56.15 198.01 56.24 196.00 55.00
C 196.02 51.86 197.01 46.42 192.00 48.00
C 191.03 40.43 194.33 27.43 188.00 24.00
C 190.40 12.96 179.23 10.17 178.00 0.00
L 164.00 0.00
C 163.83 8.42 166.38 17.32 173.00 22.00
C 172.16 29.39 175.21 34.75 178.23 40.77 C 181.25 46.80 180.68 57.13 180.09 62.90 C 179.51 68.68 174.72 72.55 179.00 80.00
C 173.75 85.91 172.35 96.18 167.00 104.00
C 163.51 102.59 160.61 106.21 158.00 105.00
C 161.06 103.37 159.87 99.75 159.00 97.00
C 158.25 99.04 154.87 99.12 154.00 100.00
M 122.00 109.00 
C 130.07 108.45 121.51 117.11 122.00 109.00 Z"/>
</g>
<g fill="None" fill-opacity="0.0" stroke="#61CCD4" stroke-opacity="1.00" stroke-width="0.3"><path d="
M 112.00 96.00 
C 110.73 98.30 108.90 100.51 108.00 103.00
C 110.84 102.74 114.25 103.69 117.00 103.00
C 124.61 99.91 130.85 83.22 135.00 76.00
C 135.56 75.03 136.91 73.09 137.00 72.00
C 136.20 68.51 134.01 65.07 131.00 63.00
C 124.54 73.96 118.15 84.85 112.00 96.00 Z"/>
</g>
<g fill="None" fill-opacity="0.0" stroke="#58B8C0" stroke-opacity="1.00" stroke-width="0.3"><path d="
M 136.00 81.00 
C 131.82 88.03 128.54 95.98 124.00 103.00
C 127.09 102.26 130.99 103.99 134.00 103.00
C 137.82 101.07 141.03 93.72 143.00 90.00
C 147.74 85.13 141.36 80.87 141.00 76.00
C 139.19 76.54 137.03 79.27 136.00 81.00 Z"/>
</g>
<g fill="None" fill-opacity="0.0" stroke="#4D9BA5" stroke-opacity="1.00" stroke-width="0.3"><path d="
M 146.00 90.00 
C 140.14 98.05 144.26 106.35 155.00 103.00
C 155.78 102.44 153.81 100.19 154.00 100.00
C 153.76 98.48 152.49 96.48 152.00 95.00
C 150.42 91.94 148.90 90.18 146.00 90.00 Z"/>
</g>
<g fill="None" fill-opacity="0.0" stroke="#306267" stroke-opacity="1.00" stroke-width="0.3"><path d="
M 108.00 104.00 
C 111.18 104.29 114.47 104.03 117.00 103.00
C 114.25 103.69 110.84 102.74 108.00 103.00
C 108.00 103.00 108.24 103.69 108.00 104.00 Z"/>
</g>
<g fill="None" fill-opacity="0.0" stroke="#275356" stroke-opacity="1.00" stroke-width="0.3"><path d="
M 134.00 103.00 
C 130.99 103.99 127.09 102.26 124.00 103.00
C 126.33 104.95 131.56 104.23 134.00 103.00 Z"/>
</g>
<g fill="None" fill-opacity="0.0" stroke="#16333E" stroke-opacity="1.00" stroke-width="0.3"><path d="
M 208.00 114.00 
C 204.95 99.25 202.63 121.48 204.00 127.00
C 207.92 126.14 214.20 128.52 216.00 123.00 C 217.80 117.48 213.62 112.21 208.00 114.00
M 212.00 117.00 
C 212.06 120.23 213.05 125.43 208.00 124.00
C 207.94 120.77 206.95 115.57 212.00 117.00 Z"/>
</g>
<g fill="None" fill-opacity="0.0" stroke="#326D7B" stroke-opacity="1.00" stroke-width="0.3"><path d="
M 50.00 117.00 
C 49.80 118.74 47.74 124.05 48.00 125.00
C 48.44 129.64 53.85 125.01 52.00 122.00
C 58.76 119.22 56.45 128.58 62.00 127.00
C 62.51 125.42 60.53 124.51 61.00 123.00
C 60.25 118.39 59.44 114.22 57.22 109.78 C 55.00 105.34 50.45 115.45 50.00 117.00
M 55.00 114.00 
C 55.71 116.23 57.43 120.93 53.00 120.00
C 53.12 117.95 53.50 115.30 55.00 114.00 Z"/>
</g>
<g fill="None" fill-opacity="0.0" stroke="#456F7F" stroke-opacity="1.00" stroke-width="0.3"><path d="
M 122.00 109.00 
C 121.51 117.11 130.07 108.45 122.00 109.00 Z"/>
</g>
<g fill="None" fill-opacity="0.0" stroke="#1F4953" stroke-opacity="1.00" stroke-width="0.3"><path d="
M 183.00 109.00 
C 177.77 112.04 176.89 131.64 188.00 127.00
C 186.43 124.31 181.67 124.91 183.00 120.00 C 184.33 115.09 182.00 113.60 183.00 109.00 Z"/>
</g>
<g fill="None" fill-opacity="0.0" stroke="#377D88" stroke-opacity="1.00" stroke-width="0.3"><path d="
M 112.00 114.00 
C 112.81 116.46 113.62 117.50 114.00 120.00
C 114.07 120.49 114.05 121.51 114.00 122.00
C 113.53 126.49 118.13 129.31 120.00 125.00
C 115.15 125.11 117.50 119.05 118.00 117.00
C 123.52 115.46 115.57 114.00 117.00 111.00
C 114.33 110.84 113.59 112.82 112.00 114.00 Z"/>
</g>
<g fill="None" fill-opacity="0.0" stroke="#372936" stroke-opacity="1.00" stroke-width="0.3"><path d="
M 76.00 114.00 
C 75.86 114.21 77.52 111.75 77.00 112.00
C 76.00 112.00 75.00 112.00 74.00 112.00
C 72.71 113.47 76.04 114.16 76.00 114.00 Z"/>
</g>
<g fill="None" fill-opacity="0.0" stroke="#0B2830" stroke-opacity="1.00" stroke-width="0.3"><path d="
M 76.00 114.00 
C 75.77 114.36 75.09 115.56 75.00 116.00
C 74.51 118.30 74.53 122.70 75.00 125.00
C 77.85 125.92 77.41 130.04 76.00 132.00
C 79.21 133.85 83.30 132.48 82.00 128.00
C 83.69 131.14 85.18 127.65 87.00 126.00
C 85.41 126.85 83.89 127.27 82.00 127.00
C 80.03 128.37 82.26 133.24 78.00 132.00
C 78.00 126.00 78.00 120.00 78.00 114.00
C 80.38 114.06 81.71 114.95 84.00 114.00
C 83.16 113.69 78.41 111.31 77.00 112.00
C 77.52 111.75 75.86 114.21 76.00 114.00 Z"/>
</g>
<g fill="None" fill-opacity="0.0" stroke="#032540" stroke-opacity="1.00" stroke-width="0.3"><path d="
M 55.00 114.00 
C 53.50 115.30 53.12 117.95 53.00 120.00
C 57.43 120.93 55.71 116.23 55.00 114.00 Z"/>
</g>
<g fill="None" fill-opacity="0.0" stroke="#357584" stroke-opacity="1.00" stroke-width="0.3"><path d="
M 64.00 118.00 
C 65.06 122.24 61.73 130.16 66.00 132.00
C 64.12 123.90 72.67 129.51 75.00 125.00
C 74.53 122.70 74.51 118.30 75.00 116.00
C 71.46 113.09 67.88 115.24 64.00 114.00
C 63.58 115.11 64.55 116.96 64.00 118.00
M 71.00 117.00 
C 73.84 118.60 71.95 126.48 68.32 124.66 C 64.69 122.84 67.95 115.29 71.00 117.00 Z"/>
</g>
<g fill="None" fill-opacity="0.0" stroke="#357984" stroke-opacity="1.00" stroke-width="0.3"><path d="
M 87.00 126.00 
C 87.77 125.31 88.30 124.86 89.00 124.00
C 91.87 118.28 88.69 115.73 84.00 114.00
C 81.71 114.95 80.38 114.06 78.00 114.00
C 78.00 120.00 78.00 126.00 78.00 132.00
C 82.26 133.24 80.03 128.37 82.00 127.00
C 83.89 127.27 85.41 126.85 87.00 126.00
M 86.00 121.00 
C 85.96 121.50 86.15 122.55 86.00 123.00
C 84.62 127.25 79.62 123.81 81.00 120.00 C 82.39 116.19 86.33 116.37 86.00 121.00 Z"/>
</g>
<g fill="None" fill-opacity="0.0" stroke="#3C808D" stroke-opacity="1.00" stroke-width="0.3"><path d="
M 94.00 120.00 
C 92.88 121.25 91.45 123.17 92.00 125.00
C 93.73 129.20 98.22 124.86 101.00 127.00
C 102.84 124.56 98.98 116.55 100.00 115.00
C 97.66 113.51 91.85 112.90 92.00 117.00
C 94.09 116.69 97.06 114.80 98.00 118.00
C 97.06 119.20 95.21 119.28 94.00 120.00
M 98.00 121.00 
C 99.41 129.51 89.47 120.55 98.00 121.00 Z"/>
</g>
<g fill="None" fill-opacity="0.0" stroke="#2A5F72" stroke-opacity="1.00" stroke-width="0.3"><path d="
M 108.00 126.00 
C 107.00 126.00 106.00 126.00 105.00 126.00
C 105.00 122.00 105.00 118.00 105.00 114.00
C 105.00 114.00 104.49 114.06 104.00 114.00
C 104.00 118.33 104.00 122.67 104.00 127.00
C 105.52 126.89 107.13 127.38 108.00 126.00 Z"/>
</g>
<g fill="None" fill-opacity="0.0" stroke="#377C88" stroke-opacity="1.00" stroke-width="0.3"><path d="
M 108.00 126.00 
C 109.22 124.07 106.55 120.10 108.25 118.25 C 109.96 116.41 110.61 116.74 111.00 114.00
C 109.33 114.00 107.67 114.00 106.00 114.00
C 106.00 114.00 105.50 114.00 105.00 114.00
C 105.00 118.00 105.00 122.00 105.00 126.00
C 106.00 126.00 107.00 126.00 108.00 126.00 Z"/>
</g>
<g fill="None" fill-opacity="0.0" stroke="#2E6975" stroke-opacity="1.00" stroke-width="0.3"><path d="
M 122.00 118.00 
C 122.00 121.00 122.00 124.00 122.00 127.00
C 122.85 126.69 124.19 127.39 125.00 127.00
C 125.00 125.00 125.00 123.00 125.00 121.00
C 121.80 120.82 123.40 117.31 123.00 115.00
C 125.92 114.48 124.73 118.33 125.00 120.00
C 125.25 119.75 126.00 120.00 126.00 120.00
C 125.97 119.50 125.93 118.49 126.00 118.00
C 126.73 115.02 125.04 113.10 122.00 114.00
C 121.49 114.88 122.66 117.26 122.00 118.00 Z"/>
</g>
<g fill="None" fill-opacity="0.0" stroke="#336A74" stroke-opacity="1.00" stroke-width="0.3"><path d="
M 128.00 119.00 
C 128.83 121.17 131.45 121.45 133.00 123.00
C 133.72 126.94 127.25 123.16 128.00 127.00
C 131.48 127.49 133.70 127.09 136.00 125.00
C 137.79 120.54 132.06 120.49 132.00 117.00
C 134.59 117.53 137.69 114.84 134.00 114.00
C 134.53 116.53 131.25 115.75 130.00 117.00
C 129.47 115.72 130.97 115.14 131.00 114.00
C 127.98 114.65 129.25 117.99 128.00 119.00 Z"/>
</g>
<g fill="None" fill-opacity="0.0" stroke="#368F8D" stroke-opacity="1.00" stroke-width="0.3"><path d="
M 134.00 114.00 
C 133.31 113.84 131.70 113.85 131.00 114.00
C 130.97 115.14 129.47 115.72 130.00 117.00
C 131.25 115.75 134.53 116.53 134.00 114.00 Z"/>
</g>
<g fill="None" fill-opacity="0.0" stroke="#2E6672" stroke-opacity="1.00" stroke-width="0.3"><path d="
M 138.00 124.00 
C 138.52 129.49 144.90 125.37 148.00 127.00
C 147.67 124.39 148.44 121.59 148.00 119.00
C 148.78 113.73 142.69 113.53 139.00 114.00
C 137.36 118.90 144.45 115.20 144.00 119.00
C 139.29 117.30 139.29 121.70 138.00 124.00
M 145.00 121.00 
C 145.55 129.07 136.89 120.51 145.00 121.00 Z"/>
</g>
<g fill="None" fill-opacity="0.0" stroke="#2C5D6B" stroke-opacity="1.00" stroke-width="0.3"><path d="
M 151.00 120.00 
C 151.36 122.51 149.57 128.10 154.00 127.00
C 151.26 115.67 162.24 115.44 159.00 127.00
C 160.18 128.64 162.81 125.07 162.00 125.00
C 164.61 116.05 158.28 112.61 151.00 114.00
C 150.94 116.00 151.08 118.00 151.00 120.00 Z"/>
</g>
<g fill="None" fill-opacity="0.0" stroke="#264855" stroke-opacity="1.00" stroke-width="0.3"><path d="
M 172.00 126.00 
C 173.69 121.19 169.75 119.43 168.00 117.00
C 171.68 118.84 171.03 114.97 172.00 114.00
C 167.96 112.05 161.86 116.46 164.70 120.30 C 167.55 124.13 170.22 123.36 165.00 126.00
C 166.55 126.96 170.66 127.98 172.00 126.00 Z"/>
</g>
<g fill="None" fill-opacity="0.0" stroke="#1D3B45" stroke-opacity="1.00" stroke-width="0.3"><path d="
M 201.00 127.00 
C 202.12 120.44 200.75 111.60 192.00 114.00
C 191.07 118.43 195.77 116.71 198.00 116.00
C 198.74 120.52 189.90 118.31 191.08 123.92 C 192.27 129.53 198.21 125.38 201.00 127.00
M 198.00 120.00 
C 199.20 127.69 191.49 123.05 198.00 120.00 Z"/>
</g>
<g fill="None" fill-opacity="0.0" stroke="#358990" stroke-opacity="1.00" stroke-width="0.3"><path d="
M 125.00 121.00 
C 125.00 120.50 125.00 120.00 125.00 120.00
C 124.73 118.33 125.92 114.48 123.00 115.00
C 123.40 117.31 121.80 120.82 125.00 121.00 Z"/>
</g>
<g fill="None" fill-opacity="0.0" stroke="#091E2E" stroke-opacity="1.00" stroke-width="0.3"><path d="
M 71.00 117.00 
C 67.95 115.29 64.69 122.84 68.32 124.66 C 71.95 126.48 73.84 118.60 71.00 117.00 Z"/>
</g>
<g fill="None" fill-opacity="0.0" stroke="#032738" stroke-opacity="1.00" stroke-width="0.3"><path d="
M 86.00 123.00 
C 84.96 124.03 83.37 124.00 82.00 124.00
C 81.70 120.75 84.29 122.00 86.00 121.00
C 86.33 116.37 82.39 116.19 81.00 120.00 C 79.62 123.81 84.62 127.25 86.00 123.00 Z"/>
</g>
<g fill="None" fill-opacity="0.0" stroke="#0A424B" stroke-opacity="1.00" stroke-width="0.3"><path d="
M 120.00 125.00 
C 118.37 123.68 118.25 123.16 118.00 121.00
C 117.88 119.96 117.72 118.00 118.00 117.00
C 117.50 119.05 115.15 125.11 120.00 125.00 Z"/>
</g>
<g fill="None" fill-opacity="0.0" stroke="#000716" stroke-opacity="1.00" stroke-width="0.3"><path d="
M 212.00 117.00 
C 206.95 115.57 207.94 120.77 208.00 124.00
C 213.05 125.43 212.06 120.23 212.00 117.00 Z"/>
</g>
<g fill="None" fill-opacity="0.0" stroke="#150D25" stroke-opacity="1.00" stroke-width="0.3"><path d="
M 114.00 122.00 
C 114.05 121.51 114.07 120.49 114.00 120.00
C 107.67 112.17 110.94 130.41 114.00 122.00 Z"/>
</g>
<g fill="None" fill-opacity="0.0" stroke="#466880" stroke-opacity="1.00" stroke-width="0.3"><path d="
M 91.00 122.00 
C 90.65 123.46 91.38 124.12 92.00 125.00
C 91.45 123.17 92.88 121.25 94.00 120.00
C 92.60 120.83 92.17 120.79 91.00 122.00 Z"/>
</g>
<g fill="None" fill-opacity="0.0" stroke="#23475A" stroke-opacity="1.00" stroke-width="0.3"><path d="
M 125.00 121.00 
C 125.00 123.00 125.00 125.00 125.00 127.00
C 126.78 126.14 126.11 121.78 126.00 120.00
C 126.00 120.00 125.25 119.75 125.00 120.00
C 125.00 120.00 125.00 120.50 125.00 121.00 Z"/>
</g>
<g fill="None" fill-opacity="0.0" stroke="#001425" stroke-opacity="1.00" stroke-width="0.3"><path d="
M 198.00 120.00 
C 191.49 123.05 199.20 127.69 198.00 120.00 Z"/>
</g>
<g fill="None" fill-opacity="0.0" stroke="#030A25" stroke-opacity="1.00" stroke-width="0.3"><path d="
M 86.00 123.00 
C 86.15 122.55 85.96 121.50 86.00 121.00
C 84.29 122.00 81.70 120.75 82.00 124.00
C 83.37 124.00 84.96 124.03 86.00 123.00 Z"/>
</g>
<g fill="None" fill-opacity="0.0" stroke="#022539" stroke-opacity="1.00" stroke-width="0.3"><path d="
M 98.00 121.00 
C 89.47 120.55 99.41 129.51 98.00 121.00 Z"/>
</g>
<g fill="None" fill-opacity="0.0" stroke="#00202F" stroke-opacity="1.00" stroke-width="0.3"><path d="
M 145.00 121.00 
C 136.89 120.51 145.55 129.07 145.00 121.00 Z"/>
</g>
<g fill="#0B0F17" fill-opacity="1.00" stroke="None">
<path d="
M 0.00 196.00 
L 257.00 196.00
L 257.00 0.00
L 178.00 0.00
C 179.23 10.17 190.40 12.96 188.00 24.00
C 194.33 27.43 191.03 40.43 192.00 48.00
C 197.01 46.42 196.02 51.86 196.00 55.00
C 198.01 56.24 201.21 56.15 200.00 60.00
C 197.52 60.03 195.72 61.69 195.00 64.00
C 199.28 67.01 196.31 76.02 199.00 81.00
C 188.56 85.53 193.03 98.00 190.00 106.00
C 186.93 103.58 187.06 106.86 188.00 109.00
C 185.76 108.01 183.54 106.98 181.00 107.00
C 183.63 97.62 177.60 115.77 176.00 106.00
C 178.33 112.17 173.97 111.40 172.00 114.00
C 171.03 114.97 171.68 118.84 168.00 117.00
C 169.75 119.43 173.69 121.19 172.00 126.00
C 170.51 129.29 167.20 127.79 164.00 127.00
C 164.36 125.20 163.80 123.58 162.00 125.00
C 162.81 125.07 160.18 128.64 159.00 127.00
C 162.24 115.44 151.26 115.67 154.00 127.00
C 149.57 128.10 151.36 122.51 151.00 120.00
C 150.37 119.00 148.58 119.57 148.00 119.00
C 148.44 121.59 147.67 124.39 148.00 127.00
C 144.90 125.37 138.52 129.49 138.00 124.00
C 137.71 124.52 136.37 124.66 136.00 125.00
C 133.70 127.09 131.48 127.49 128.00 127.00
C 127.25 123.16 133.72 126.94 133.00 123.00
C 131.45 121.45 128.83 121.17 128.00 119.00
C 127.80 118.84 126.03 118.08 126.00 118.00
C 125.93 118.49 125.97 119.50 126.00 120.00
C 126.11 121.78 126.78 126.14 125.00 127.00
C 124.19 127.39 122.85 126.69 122.00 127.00
C 122.00 124.00 122.00 121.00 122.00 118.00
C 121.99 118.01 118.08 118.65 118.00 121.00
C 118.25 123.16 118.37 123.68 120.00 125.00
C 118.13 129.31 113.53 126.49 114.00 122.00
C 110.94 130.41 107.67 112.17 114.00 120.00
C 113.62 117.50 112.81 116.46 112.00 114.00
C 111.68 114.24 111.00 114.00 111.00 114.00
C 110.61 116.74 109.96 116.41 108.25 118.25 C 106.55 120.10 109.22 124.07 108.00 126.00
C 107.13 127.38 105.52 126.89 104.00 127.00
C 104.00 122.67 104.00 118.33 104.00 114.00
C 102.30 113.78 100.90 114.93 100.00 115.00
C 98.98 116.55 102.84 124.56 101.00 127.00
C 98.22 124.86 93.73 129.20 92.00 125.00
C 91.38 124.12 90.65 123.46 91.00 122.00
C 90.41 122.62 89.54 123.34 89.00 124.00
C 88.30 124.86 87.77 125.31 87.00 126.00
C 85.18 127.65 83.69 131.14 82.00 128.00
C 83.30 132.48 79.21 133.85 76.00 132.00
C 77.41 130.04 77.85 125.92 75.00 125.00
C 72.67 129.51 64.12 123.90 66.00 132.00
C 61.73 130.16 65.06 122.24 64.00 118.00
C 63.23 119.46 61.47 121.50 61.00 123.00
C 60.53 124.51 62.51 125.42 62.00 127.00
C 56.45 128.58 58.76 119.22 52.00 122.00
C 53.85 125.01 48.44 129.64 48.00 125.00
C 47.21 123.92 48.60 121.23 48.00 120.00
C 37.81 125.77 35.10 114.73 26.97 112.03 C 18.85 109.33 19.98 98.47 14.00 98.00
C 17.68 95.00 14.03 89.15 10.00 88.00
C 10.00 85.00 10.00 82.00 10.00 79.00
C 0.46 76.67 9.00 67.19 8.00 60.00 C 6.99 52.80 11.65 45.40 12.90 38.90 C 14.15 32.41 15.47 25.39 19.75 19.75 C 24.04 14.12 21.53 5.59 26.00 0.00
L 0.00 0.00
L 0.00 196.00
M 208.00 114.00 
C 213.62 112.21 217.80 117.48 216.00 123.00 C 214.20 128.52 207.92 126.14 204.00 127.00
C 202.63 121.48 204.95 99.25 208.00 114.00
M 183.00 109.00 
C 182.00 113.60 184.33 115.09 183.00 120.00 C 181.67 124.91 186.43 124.31 188.00 127.00
C 176.89 131.64 177.77 112.04 183.00 109.00
M 201.00 127.00 
C 198.21 125.38 192.27 129.53 191.08 123.92 C 189.90 118.31 198.74 120.52 198.00 116.00
C 195.77 116.71 191.07 118.43 192.00 114.00
C 200.75 111.60 202.12 120.44 201.00 127.00 Z"/>
</g>
<g fill="#1A2230" fill-opacity="1.00" stroke="None">
<path d="
M 48.00 125.00 
C 47.74 124.05 49.80 118.74 50.00 117.00
C 50.61 111.68 50.15 111.81 49.00 107.00
C 47.26 111.01 44.09 106.26 41.00 107.00
C 40.68 102.12 36.68 100.07 32.00 100.00
C 31.52 92.77 22.84 88.37 25.00 80.00
C 18.80 77.09 22.21 68.90 21.98 61.98 C 21.74 55.05 23.29 46.71 24.00 40.00
C 28.76 39.50 26.58 30.59 30.30 27.30 C 34.03 24.02 30.94 16.58 34.75 12.75 C 38.57 8.93 34.86 3.97 39.00 0.00
L 26.00 0.00
C 21.53 5.59 24.04 14.12 19.75 19.75 C 15.47 25.39 14.15 32.41 12.90 38.90 C 11.65 45.40 6.99 52.80 8.00 60.00 C 9.00 67.19 0.46 76.67 10.00 79.00
C 10.00 82.00 10.00 85.00 10.00 88.00
C 14.03 89.15 17.68 95.00 14.00 98.00
C 19.98 98.47 18.85 109.33 26.97 112.03 C 35.10 114.73 37.81 125.77 48.00 120.00
C 48.60 121.23 47.21 123.92 48.00 125.00 Z"/>
</g>
<g fill="#242F42" fill-opacity="1.00" stroke="None">
<path d="
M 50.00 117.00 
C 50.45 115.45 55.00 105.34 57.22 109.78 C 59.44 114.22 60.25 118.39 61.00 123.00
C 61.47 121.50 63.23 119.46 64.00 118.00
C 64.55 116.96 63.58 115.11 64.00 114.00
C 67.88 115.24 71.46 113.09 75.00 116.00
C 75.09 115.56 75.77 114.36 76.00 114.00
C 76.04 114.16 72.71 113.47 74.00 112.00
C 75.00 112.00 76.00 112.00 77.00 112.00
C 78.41 111.31 83.16 113.69 84.00 114.00
C 88.69 115.73 91.87 118.28 89.00 124.00
C 89.54 123.34 90.41 122.62 91.00 122.00
C 92.17 120.79 92.60 120.83 94.00 120.00
C 95.21 119.28 97.06 119.20 98.00 118.00
C 97.06 114.80 94.09 116.69 92.00 117.00
C 91.85 112.90 97.66 113.51 100.00 115.00
C 100.90 114.93 102.30 113.78 104.00 114.00
C 104.49 114.06 105.00 114.00 105.00 114.00
C 105.50 114.00 106.00 114.00 106.00 114.00
C 109.86 112.08 105.55 107.14 108.00 104.00
C 108.24 103.69 108.00 103.00 108.00 103.00
C 108.90 100.51 110.73 98.30 112.00 96.00
C 109.76 97.80 101.94 97.80 104.00 104.00
C 101.54 103.47 98.87 104.58 98.00 107.00
C 94.84 102.44 86.40 106.47 80.33 104.67 C 74.26 102.87 69.27 98.10 62.00 100.00
C 59.78 94.09 53.84 88.56 48.00 88.00
C 48.00 85.00 48.00 82.00 48.00 79.00
C 37.11 76.14 41.36 65.66 40.00 59.00 C 38.64 52.34 41.02 49.33 40.00 43.00
C 46.84 40.40 45.36 31.96 48.00 27.00
C 53.41 29.78 50.76 17.57 52.78 12.78 C 54.80 7.99 58.78 3.38 63.00 0.00
L 39.00 0.00
C 34.86 3.97 38.57 8.93 34.75 12.75 C 30.94 16.58 34.03 24.02 30.30 27.30 C 26.58 30.59 28.76 39.50 24.00 40.00
C 23.29 46.71 21.74 55.05 21.98 61.98 C 22.21 68.90 18.80 77.09 25.00 80.00
C 22.84 88.37 31.52 92.77 32.00 100.00
C 36.68 100.07 40.68 102.12 41.00 107.00
C 44.09 106.26 47.26 111.01 49.00 107.00
C 50.15 111.81 50.61 111.68 50.00 117.00 Z"/>
</g>
<g fill="#32425A" fill-opacity="1.00" stroke="None">
<path d="
M 112.00 96.00 
C 118.15 84.85 124.54 73.96 131.00 63.00
C 134.01 65.07 136.20 68.51 137.00 72.00
C 138.22 73.50 139.61 73.79 141.00 75.00
C 142.24 72.96 144.18 71.27 147.00 72.00
C 145.40 67.39 151.35 59.50 144.00 59.00
C 144.60 55.97 150.29 53.97 148.00 49.00 C 145.71 44.03 146.72 29.99 143.00 40.00
C 143.27 33.95 140.78 24.98 135.00 24.00
C 136.98 16.70 130.04 15.36 132.00 8.00
C 126.50 9.63 128.22 3.25 128.00 0.00
L 63.00 0.00
C 58.78 3.38 54.80 7.99 52.78 12.78 C 50.76 17.57 53.41 29.78 48.00 27.00
C 45.36 31.96 46.84 40.40 40.00 43.00
C 41.02 49.33 38.64 52.34 40.00 59.00 C 41.36 65.66 37.11 76.14 48.00 79.00
C 48.00 82.00 48.00 85.00 48.00 88.00
C 53.84 88.56 59.78 94.09 62.00 100.00
C 69.27 98.10 74.26 102.87 80.33 104.67 C 86.40 106.47 94.84 102.44 98.00 107.00
C 98.87 104.58 101.54 103.47 104.00 104.00
C 101.94 97.80 109.76 97.80 112.00 96.00 Z"/>
</g>
<g fill="#27364A" fill-opacity="1.00" stroke="None">
<path d="
M 137.00 72.00 
C 136.91 73.09 135.56 75.03 135.00 76.00
C 134.94 76.74 136.18 79.41 136.00 81.00
C 137.03 79.27 139.19 76.54 141.00 76.00
C 141.36 80.87 147.74 85.13 143.00 90.00
C 143.08 89.95 146.18 90.01 146.00 90.00
C 148.90 90.18 150.42 91.94 152.00 95.00
C 151.02 92.06 150.50 90.19 150.00 87.00
C 154.76 87.45 155.48 79.27 158.31 74.31 C 161.13 69.34 160.13 59.94 160.98 53.98 C 161.82 48.01 158.01 39.39 159.00 33.00
C 149.91 32.19 154.08 22.75 149.70 18.30 C 145.32 13.85 144.20 6.64 144.00 0.00
L 128.00 0.00
C 128.22 3.25 126.50 9.63 132.00 8.00
C 130.04 15.36 136.98 16.70 135.00 24.00
C 140.78 24.98 143.27 33.95 143.00 40.00
C 146.72 29.99 145.71 44.03 148.00 49.00 C 150.29 53.97 144.60 55.97 144.00 59.00
C 151.35 59.50 145.40 67.39 147.00 72.00
C 144.18 71.27 142.24 72.96 141.00 75.00
C 139.61 73.79 138.22 73.50 137.00 72.00 Z"/>
</g>
<g fill="#202939" fill-opacity="1.00" stroke="None">
<path d="
M 152.00 95.00 
C 152.49 96.48 153.76 98.48 154.00 100.00
C 154.87 99.12 158.25 99.04 159.00 97.00
C 159.87 99.75 161.06 103.37 158.00 105.00
C 160.61 106.21 163.51 102.59 167.00 104.00
C 172.35 96.18 173.75 85.91 179.00 80.00
C 174.72 72.55 179.51 68.68 180.09 62.90 C 180.68 57.13 181.25 46.80 178.23 40.77 C 175.21 34.75 172.16 29.39 173.00 22.00
C 166.38 17.32 163.83 8.42 164.00 0.00
L 144.00 0.00
C 144.20 6.64 145.32 13.85 149.70 18.30 C 154.08 22.75 149.91 32.19 159.00 33.00
C 158.01 39.39 161.82 48.01 160.98 53.98 C 160.13 59.94 161.13 69.34 158.31 74.31 C 155.48 79.27 154.76 87.45 150.00 87.00
C 150.50 90.19 151.02 92.06 152.00 95.00 Z"/>
</g>
<g fill="#131C27" fill-opacity="1.00" stroke="None">
<path d="
M 154.00 100.00 
C 153.81 100.19 155.78 102.44 155.00 103.00
C 144.26 106.35 140.14 98.05 146.00 90.00
C 146.18 90.01 143.08 89.95 143.00 90.00
C 141.03 93.72 137.82 101.07 134.00 103.00
C 131.56 104.23 126.33 104.95 124.00 103.00
C 128.54 95.98 131.82 88.03 136.00 81.00
C 136.18 79.41 134.94 76.74 135.00 76.00
C 130.85 83.22 124.61 99.91 117.00 103.00
C 114.47 104.03 111.18 104.29 108.00 104.00
C 105.55 107.14 109.86 112.08 106.00 114.00
C 107.67 114.00 109.33 114.00 111.00 114.00
C 111.00 114.00 111.68 114.24 112.00 114.00
C 113.59 112.82 114.33 110.84 117.00 111.00
C 115.57 114.00 123.52 115.46 118.00 117.00
C 117.72 118.00 117.88 119.96 118.00 121.00
C 118.08 118.65 121.99 118.01 122.00 118.00
C 122.66 117.26 121.49 114.88 122.00 114.00
C 125.04 113.10 126.73 115.02 126.00 118.00
C 126.03 118.08 127.80 118.84 128.00 119.00
C 129.25 117.99 127.98 114.65 131.00 114.00
C 131.70 113.85 133.31 113.84 134.00 114.00
C 137.69 114.84 134.59 117.53 132.00 117.00
C 132.06 120.49 137.79 120.54 136.00 125.00
C 136.37 124.66 137.71 124.52 138.00 124.00
C 139.29 121.70 139.29 117.30 144.00 119.00
C 144.45 115.20 137.36 118.90 139.00 114.00
C 142.69 113.53 148.78 113.73 148.00 119.00
C 148.58 119.57 150.37 119.00 151.00 120.00
C 151.08 118.00 150.94 116.00 151.00 114.00
C 158.28 112.61 164.61 116.05 162.00 125.00
C 163.80 123.58 164.36 125.20 164.00 127.00
C 167.20 127.79 170.51 129.29 172.00 126.00
C 170.66 127.98 166.55 126.96 165.00 126.00
C 170.22 123.36 167.55 124.13 164.70 120.30 C 161.86 116.46 167.96 112.05 172.00 114.00
C 173.97 111.40 178.33 112.17 176.00 106.00
C 177.60 115.77 183.63 97.62 181.00 107.00
C 183.54 106.98 185.76 108.01 188.00 109.00
C 187.06 106.86 186.93 103.58 190.00 106.00
C 193.03 98.00 188.56 85.53 199.00 81.00
C 196.31 76.02 199.28 67.01 195.00 64.00
C 195.72 61.69 197.52 60.03 200.00 60.00
C 201.21 56.15 198.01 56.24 196.00 55.00
C 196.02 51.86 197.01 46.42 192.00 48.00
C 191.03 40.43 194.33 27.43 188.00 24.00
C 190.40 12.96 179.23 10.17 178.00 0.00
L 164.00 0.00
C 163.83 8.42 166.38 17.32 173.00 22.00
C 172.16 29.39 175.21 34.75 178.23 40.77 C 181.25 46.80 180.68 57.13 180.09 62.90 C 179.51 68.68 174.72 72.55 179.00 80.00
C 173.75 85.91 172.35 96.18 167.00 104.00
C 163.51 102.59 160.61 106.21 158.00 105.00
C 161.06 103.37 159.87 99.75 159.00 97.00
C 158.25 99.04 154.87 99.12 154.00 100.00
M 122.00 109.00 
C 130.07 108.45 121.51 117.11 122.00 109.00 Z"/>
</g>
<g fill="#61CCD4" fill-opacity="1.00" stroke="None">
<path d="
M 112.00 96.00 
C 110.73 98.30 108.90 100.51 108.00 103.00
C 110.84 102.74 114.25 103.69 117.00 103.00
C 124.61 99.91 130.85 83.22 135.00 76.00
C 135.56 75.03 136.91 73.09 137.00 72.00
C 136.20 68.51 134.01 65.07 131.00 63.00
C 124.54 73.96 118.15 84.85 112.00 96.00 Z"/>
</g>
<g fill="#58B8C0" fill-opacity="1.00" stroke="None">
<path d="
M 136.00 81.00 
C 131.82 88.03 128.54 95.98 124.00 103.00
C 127.09 102.26 130.99 103.99 134.00 103.00
C 137.82 101.07 141.03 93.72 143.00 90.00
C 147.74 85.13 141.36 80.87 141.00 76.00
C 139.19 76.54 137.03 79.27 136.00 81.00 Z"/>
</g>
<g fill="#4D9BA5" fill-opacity="1.00" stroke="None">
<path d="
M 146.00 90.00 
C 140.14 98.05 144.26 106.35 155.00 103.00
C 155.78 102.44 153.81 100.19 154.00 100.00
C 153.76 98.48 152.49 96.48 152.00 95.00
C 150.42 91.94 148.90 90.18 146.00 90.00 Z"/>
</g>
<g fill="#306267" fill-opacity="1.00" stroke="None">
<path d="
M 108.00 104.00 
C 111.18 104.29 114.47 104.03 117.00 103.00
C 114.25 103.69 110.84 102.74 108.00 103.00
C 108.00 103.00 108.24 103.69 108.00 104.00 Z"/>
</g>
<g fill="#275356" fill-opacity="1.00" stroke="None">
<path d="
M 134.00 103.00 
C 130.99 103.99 127.09 102.26 124.00 103.00
C 126.33 104.95 131.56 104.23 134.00 103.00 Z"/>
</g>
<g fill="#16333E" fill-opacity="1.00" stroke="None">
<path d="
M 208.00 114.00 
C 204.95 99.25 202.63 121.48 204.00 127.00
C 207.92 126.14 214.20 128.52 216.00 123.00 C 217.80 117.48 213.62 112.21 208.00 114.00
M 212.00 117.00 
C 212.06 120.23 213.05 125.43 208.00 124.00
C 207.94 120.77 206.95 115.57 212.00 117.00 Z"/>
</g>
<g fill="#326D7B" fill-opacity="1.00" stroke="None">
<path d="
M 50.00 117.00 
C 49.80 118.74 47.74 124.05 48.00 125.00
C 48.44 129.64 53.85 125.01 52.00 122.00
C 58.76 119.22 56.45 128.58 62.00 127.00
C 62.51 125.42 60.53 124.51 61.00 123.00
C 60.25 118.39 59.44 114.22 57.22 109.78 C 55.00 105.34 50.45 115.45 50.00 117.00
M 55.00 114.00 
C 55.71 116.23 57.43 120.93 53.00 120.00
C 53.12 117.95 53.50 115.30 55.00 114.00 Z"/>
</g>
<g fill="#456F7F" fill-opacity="1.00" stroke="None">
<path d="
M 122.00 109.00 
C 121.51 117.11 130.07 108.45 122.00 109.00 Z"/>
</g>
<g fill="#1F4953" fill-opacity="1.00" stroke="None">
<path d="
M 183.00 109.00 
C 177.77 112.04 176.89 131.64 188.00 127.00
C 186.43 124.31 181.67 124.91 183.00 120.00 C 184.33 115.09 182.00 113.60 183.00 109.00 Z"/>
</g>
<g fill="#377D88" fill-opacity="1.00" stroke="None">
<path d="
M 112.00 114.00 
C 112.81 116.46 113.62 117.50 114.00 120.00
C 114.07 120.49 114.05 121.51 114.00 122.00
C 113.53 126.49 118.13 129.31 120.00 125.00
C 115.15 125.11 117.50 119.05 118.00 117.00
C 123.52 115.46 115.57 114.00 117.00 111.00
C 114.33 110.84 113.59 112.82 112.00 114.00 Z"/>
</g>
<g fill="#372936" fill-opacity="1.00" stroke="None">
<path d="
M 76.00 114.00 
C 75.86 114.21 77.52 111.75 77.00 112.00
C 76.00 112.00 75.00 112.00 74.00 112.00
C 72.71 113.47 76.04 114.16 76.00 114.00 Z"/>
</g>
<g fill="#0B2830" fill-opacity="1.00" stroke="None">
<path d="
M 76.00 114.00 
C 75.77 114.36 75.09 115.56 75.00 116.00
C 74.51 118.30 74.53 122.70 75.00 125.00
C 77.85 125.92 77.41 130.04 76.00 132.00
C 79.21 133.85 83.30 132.48 82.00 128.00
C 83.69 131.14 85.18 127.65 87.00 126.00
C 85.41 126.85 83.89 127.27 82.00 127.00
C 80.03 128.37 82.26 133.24 78.00 132.00
C 78.00 126.00 78.00 120.00 78.00 114.00
C 80.38 114.06 81.71 114.95 84.00 114.00
C 83.16 113.69 78.41 111.31 77.00 112.00
C 77.52 111.75 75.86 114.21 76.00 114.00 Z"/>
</g>
<g fill="#032540" fill-opacity="1.00" stroke="None">
<path d="
M 55.00 114.00 
C 53.50 115.30 53.12 117.95 53.00 120.00
C 57.43 120.93 55.71 116.23 55.00 114.00 Z"/>
</g>
<g fill="#357584" fill-opacity="1.00" stroke="None">
<path d="
M 64.00 118.00 
C 65.06 122.24 61.73 130.16 66.00 132.00
C 64.12 123.90 72.67 129.51 75.00 125.00
C 74.53 122.70 74.51 118.30 75.00 116.00
C 71.46 113.09 67.88 115.24 64.00 114.00
C 63.58 115.11 64.55 116.96 64.00 118.00
M 71.00 117.00 
C 73.84 118.60 71.95 126.48 68.32 124.66 C 64.69 122.84 67.95 115.29 71.00 117.00 Z"/>
</g>
<g fill="#357984" fill-opacity="1.00" stroke="None">
<path d="
M 87.00 126.00 
C 87.77 125.31 88.30 124.86 89.00 124.00
C 91.87 118.28 88.69 115.73 84.00 114.00
C 81.71 114.95 80.38 114.06 78.00 114.00
C 78.00 120.00 78.00 126.00 78.00 132.00
C 82.26 133.24 80.03 128.37 82.00 127.00
C 83.89 127.27 85.41 126.85 87.00 126.00
M 86.00 121.00 
C 85.96 121.50 86.15 122.55 86.00 123.00
C 84.62 127.25 79.62 123.81 81.00 120.00 C 82.39 116.19 86.33 116.37 86.00 121.00 Z"/>
</g>
<g fill="#3C808D" fill-opacity="1.00" stroke="None">
<path d="
M 94.00 120.00 
C 92.88 121.25 91.45 123.17 92.00 125.00
C 93.73 129.20 98.22 124.86 101.00 127.00
C 102.84 124.56 98.98 116.55 100.00 115.00
C 97.66 113.51 91.85 112.90 92.00 117.00
C 94.09 116.69 97.06 114.80 98.00 118.00
C 97.06 119.20 95.21 119.28 94.00 120.00
M 98.00 121.00 
C 99.41 129.51 89.47 120.55 98.00 121.00 Z"/>
</g>
<g fill="#2A5F72" fill-opacity="1.00" stroke="None">
<path d="
M 108.00 126.00 
C 107.00 126.00 106.00 126.00 105.00 126.00
C 105.00 122.00 105.00 118.00 105.00 114.00
C 105.00 114.00 104.49 114.06 104.00 114.00
C 104.00 118.33 104.00 122.67 104.00 127.00
C 105.52 126.89 107.13 127.38 108.00 126.00 Z"/>
</g>
<g fill="#377C88" fill-opacity="1.00" stroke="None">
<path d="
M 108.00 126.00 
C 109.22 124.07 106.55 120.10 108.25 118.25 C 109.96 116.41 110.61 116.74 111.00 114.00
C 109.33 114.00 107.67 114.00 106.00 114.00
C 106.00 114.00 105.50 114.00 105.00 114.00
C 105.00 118.00 105.00 122.00 105.00 126.00
C 106.00 126.00 107.00 126.00 108.00 126.00 Z"/>
</g>
<g fill="#2E6975" fill-opacity="1.00" stroke="None">
<path d="
M 122.00 118.00 
C 122.00 121.00 122.00 124.00 122.00 127.00
C 122.85 126.69 124.19 127.39 125.00 127.00
C 125.00 125.00 125.00 123.00 125.00 121.00
C 121.80 120.82 123.40 117.31 123.00 115.00
C 125.92 114.48 124.73 118.33 125.00 120.00
C 125.25 119.75 126.00 120.00 126.00 120.00
C 125.97 119.50 125.93 118.49 126.00 118.00
C 126.73 115.02 125.04 113.10 122.00 114.00
C 121.49 114.88 122.66 117.26 122.00 118.00 Z"/>
</g>
<g fill="#336A74" fill-opacity="1.00" stroke="None">
<path d="
M 128.00 119.00 
C 128.83 121.17 131.45 121.45 133.00 123.00
C 133.72 126.94 127.25 123.16 128.00 127.00
C 131.48 127.49 133.70 127.09 136.00 125.00
C 137.79 120.54 132.06 120.49 132.00 117.00
C 134.59 117.53 137.69 114.84 134.00 114.00
C 134.53 116.53 131.25 115.75 130.00 117.00
C 129.47 115.72 130.97 115.14 131.00 114.00
C 127.98 114.65 129.25 117.99 128.00 119.00 Z"/>
</g>
<g fill="#368F8D" fill-opacity="1.00" stroke="None">
<path d="
M 134.00 114.00 
C 133.31 113.84 131.70 113.85 131.00 114.00
C 130.97 115.14 129.47 115.72 130.00 117.00
C 131.25 115.75 134.53 116.53 134.00 114.00 Z"/>
</g>
<g fill="#2E6672" fill-opacity="1.00" stroke="None">
<path d="
M 138.00 124.00 
C 138.52 129.49 144.90 125.37 148.00 127.00
C 147.67 124.39 148.44 121.59 148.00 119.00
C 148.78 113.73 142.69 113.53 139.00 114.00
C 137.36 118.90 144.45 115.20 144.00 119.00
C 139.29 117.30 139.29 121.70 138.00 124.00
M 145.00 121.00 
C 145.55 129.07 136.89 120.51 145.00 121.00 Z"/>
</g>
<g fill="#2C5D6B" fill-opacity="1.00" stroke="None">
<path d="
M 151.00 120.00 
C 151.36 122.51 149.57 128.10 154.00 127.00
C 151.26 115.67 162.24 115.44 159.00 127.00
C 160.18 128.64 162.81 125.07 162.00 125.00
C 164.61 116.05 158.28 112.61 151.00 114.00
C 150.94 116.00 151.08 118.00 151.00 120.00 Z"/>
</g>
<g fill="#264855" fill-opacity="1.00" stroke="None">
<path d="
M 172.00 126.00 
C 173.69 121.19 169.75 119.43 168.00 117.00
C 171.68 118.84 171.03 114.97 172.00 114.00
C 167.96 112.05 161.86 116.46 164.70 120.30 C 167.55 124.13 170.22 123.36 165.00 126.00
C 166.55 126.96 170.66 127.98 172.00 126.00 Z"/>
</g>
<g fill="#1D3B45" fill-opacity="1.00" stroke="None">
<path d="
M 201.00 127.00 
C 202.12 120.44 200.75 111.60 192.00 114.00
C 191.07 118.43 195.77 116.71 198.00 116.00
C 198.74 120.52 189.90 118.31 191.08 123.92 C 192.27 129.53 198.21 125.38 201.00 127.00
M 198.00 120.00 
C 199.20 127.69 191.49 123.05 198.00 120.00 Z"/>
</g>
<g fill="#358990" fill-opacity="1.00" stroke="None">
<path d="
M 125.00 121.00 
C 125.00 120.50 125.00 120.00 125.00 120.00
C 124.73 118.33 125.92 114.48 123.00 115.00
C 123.40 117.31 121.80 120.82 125.00 121.00 Z"/>
</g>
<g fill="#091E2E" fill-opacity="1.00" stroke="None">
<path d="
M 71.00 117.00 
C 67.95 115.29 64.69 122.84 68.32 124.66 C 71.95 126.48 73.84 118.60 71.00 117.00 Z"/>
</g>
<g fill="#032738" fill-opacity="1.00" stroke="None">
<path d="
M 86.00 123.00 
C 84.96 124.03 83.37 124.00 82.00 124.00
C 81.70 120.75 84.29 122.00 86.00 121.00
C 86.33 116.37 82.39 116.19 81.00 120.00 C 79.62 123.81 84.62 127.25 86.00 123.00 Z"/>
</g>
<g fill="#0A424B" fill-opacity="1.00" stroke="None">
<path d="
M 120.00 125.00 
C 118.37 123.68 118.25 123.16 118.00 121.00
C 117.88 119.96 117.72 118.00 118.00 117.00
C 117.50 119.05 115.15 125.11 120.00 125.00 Z"/>
</g>
<g fill="#000716" fill-opacity="1.00" stroke="None">
<path d="
M 212.00 117.00 
C 206.95 115.57 207.94 120.77 208.00 124.00
C 213.05 125.43 212.06 120.23 212.00 117.00 Z"/>
</g>
<g fill="#150D25" fill-opacity="1.00" stroke="None">
<path d="
M 114.00 122.00 
C 114.05 121.51 114.07 120.49 114.00 120.00
C 107.67 112.17 110.94 130.41 114.00 122.00 Z"/>
</g>
<g fill="#466880" fill-opacity="1.00" stroke="None">
<path d="
M 91.00 122.00 
C 90.65 123.46 91.38 124.12 92.00 125.00
C 91.45 123.17 92.88 121.25 94.00 120.00
C 92.60 120.83 92.17 120.79 91.00 122.00 Z"/>
</g>
<g fill="#23475A" fill-opacity="1.00" stroke="None">
<path d="
M 125.00 121.00 
C 125.00 123.00 125.00 125.00 125.00 127.00
C 126.78 126.14 126.11 121.78 126.00 120.00
C 126.00 120.00 125.25 119.75 125.00 120.00
C 125.00 120.00 125.00 120.50 125.00 121.00 Z"/>
</g>
<g fill="#001425" fill-opacity="1.00" stroke="None">
<path d="
M 198.00 120.00 
C 191.49 123.05 199.20 127.69 198.00 120.00 Z"/>
</g>
<g fill="#030A25" fill-opacity="1.00" stroke="None">
<path d="
M 86.00 123.00 
C 86.15 122.55 85.96 121.50 86.00 121.00
C 84.29 122.00 81.70 120.75 82.00 124.00
C 83.37 124.00 84.96 124.03 86.00 123.00 Z"/>
</g>
<g fill="#022539" fill-opacity="1.00" stroke="None">
<path d="
M 98.00 121.00 
C 89.47 120.55 99.41 129.51 98.00 121.00 Z"/>
</g>
<g fill="#00202F" fill-opacity="1.00" stroke="None">
<path d="
M 145.00 121.00 
C 136.89 120.51 145.55 129.07 145.00 121.00 Z"/>
</g>
</svg>